<svg width="224" height="224" viewBox="0 0 224 224" fill="none" xmlns="http://www.w3.org/2000/svg">
<path d="M186.667 126.933V112C186.667 108.039 185.093 104.241 182.293 101.441C179.492 98.64 175.694 97.0667 171.733 97.0667H22.4001C18.4396 97.0667 14.6412 98.64 11.8407 101.441C9.04013 104.241 7.4668 108.039 7.4668 112V201.6C7.4668 205.561 9.04013 209.359 11.8407 212.159C14.6412 214.96 18.4396 216.533 22.4001 216.533H171.733C175.694 216.533 179.492 214.96 182.293 212.159C185.093 209.359 186.667 205.561 186.667 201.6V186.667M186.667 126.933H126.933C119.012 126.933 111.416 130.08 105.815 135.681C100.213 141.282 97.0668 148.879 97.0668 156.8C97.0668 164.721 100.213 172.318 105.815 177.919C111.416 183.52 119.012 186.667 126.933 186.667H186.667M186.667 126.933C194.588 126.933 202.185 130.08 207.786 135.681C213.387 141.282 216.533 148.879 216.533 156.8C216.533 164.721 213.387 172.318 207.786 177.919C202.185 183.52 194.588 186.667 186.667 186.667M52.2668 97.0667V52.2667C52.2668 40.385 56.9868 28.9899 65.3884 20.5883C73.79 12.1867 85.1851 7.46667 97.0668 7.46667C108.949 7.46667 120.344 12.1867 128.745 20.5883C137.147 28.9899 141.867 40.385 141.867 52.2667V97.0667M179.2 156.8H194.133M149.333 156.8H164.267M119.467 156.8H134.4" stroke="black" stroke-width="8"/>
</svg>
