<svg width="23" height="22" viewBox="0 0 23 22" fill="none" xmlns="http://www.w3.org/2000/svg">
<path d="M5.09684 2.83328C5.09653 3.45212 4.8504 4.04549 4.4126 4.48285C3.9748 4.92022 3.38118 5.16576 2.76234 5.16545C2.1435 5.16514 1.55013 4.91901 1.11277 4.4812C0.675402 4.0434 0.429867 3.44978 0.430176 2.83095C0.430485 2.21211 0.676615 1.61874 1.11442 1.18137C1.55222 0.744006 2.14584 0.49847 2.76468 0.49878C3.38351 0.499089 3.97688 0.745218 4.41425 1.18302C4.85162 1.62083 5.09715 2.21444 5.09684 2.83328ZM5.16684 6.89328H0.500176V21.4999H5.16684V6.89328ZM12.5402 6.89328H7.89684V21.4999H12.4935V13.8349C12.4935 9.56495 18.0585 9.16828 18.0585 13.8349V21.4999H22.6668V12.2483C22.6668 5.04995 14.4302 5.31828 12.4935 8.85328L12.5402 6.89328Z" fill="#496440"/>
</svg>
