<svg width="37" height="36" viewBox="0 0 37 36" fill="none" xmlns="http://www.w3.org/2000/svg">
<path d="M18.5 0.72998C16.0705 0.72998 13.6649 1.19426 11.4204 2.09631C9.17583 2.99836 7.13641 4.32052 5.41852 5.9873C1.9491 9.3535 0 13.919 0 18.6796C0 26.6133 5.3095 33.3444 12.654 35.7317C13.579 35.8753 13.875 35.3189 13.875 34.8342V31.8007C8.7505 32.8777 7.659 29.3955 7.659 29.3955C6.808 27.3133 5.6055 26.7569 5.6055 26.7569C3.922 25.644 5.735 25.6799 5.735 25.6799C7.585 25.8056 8.5655 27.5287 8.5655 27.5287C10.175 30.2571 12.8945 29.4493 13.949 29.0185C14.1155 27.8518 14.5965 27.062 15.1145 26.6133C11.0075 26.1646 6.697 24.6209 6.697 17.7821C6.697 15.7897 7.4 14.1922 8.6025 12.9178C8.4175 12.469 7.77 10.6023 8.7875 8.17906C8.7875 8.17906 10.3415 7.69442 13.875 10.0099C15.3365 9.61503 16.9275 9.41759 18.5 9.41759C20.0725 9.41759 21.6635 9.61503 23.125 10.0099C26.6585 7.69442 28.2125 8.17906 28.2125 8.17906C29.23 10.6023 28.5825 12.469 28.3975 12.9178C29.6 14.1922 30.303 15.7897 30.303 17.7821C30.303 24.6388 25.974 26.1466 21.8485 26.5954C22.5145 27.1518 23.125 28.2467 23.125 29.916V34.8342C23.125 35.3189 23.421 35.8932 24.3645 35.7317C31.709 33.3265 37 26.6133 37 18.6796C37 16.3224 36.5215 13.9883 35.5918 11.8106C34.6621 9.63282 33.2994 7.65407 31.5815 5.9873C29.8636 4.32052 27.8242 2.99836 25.5796 2.09631C23.3351 1.19426 20.9295 0.72998 18.5 0.72998Z" fill="white"/>
</svg>
