<svg width="24" height="24" viewBox="0 0 24 24" fill="none" xmlns="http://www.w3.org/2000/svg">
<path d="M7.10016 0.333252H16.9002C20.6335 0.333252 23.6668 3.36659 23.6668 7.09992V16.8999C23.6668 18.6946 22.9539 20.4157 21.6849 21.6847C20.4159 22.9537 18.6948 23.6666 16.9002 23.6666H7.10016C3.36683 23.6666 0.333496 20.6333 0.333496 16.8999V7.09992C0.333496 5.30529 1.04641 3.58416 2.31541 2.31516C3.5844 1.04617 5.30553 0.333252 7.10016 0.333252ZM6.86683 2.66659C5.75292 2.66659 4.68463 3.10908 3.89698 3.89674C3.10933 4.68439 2.66683 5.75268 2.66683 6.86658V17.1333C2.66683 19.4549 4.54516 21.3333 6.86683 21.3333H17.1335C18.2474 21.3333 19.3157 20.8908 20.1033 20.1031C20.891 19.3154 21.3335 18.2472 21.3335 17.1333V6.86658C21.3335 4.54492 19.4552 2.66659 17.1335 2.66659H6.86683ZM18.1252 4.41658C18.5119 4.41658 18.8829 4.57023 19.1564 4.84372C19.4299 5.11721 19.5835 5.48814 19.5835 5.87492C19.5835 6.26169 19.4299 6.63263 19.1564 6.90612C18.8829 7.17961 18.5119 7.33325 18.1252 7.33325C17.7384 7.33325 17.3675 7.17961 17.094 6.90612C16.8205 6.63263 16.6668 6.26169 16.6668 5.87492C16.6668 5.48814 16.8205 5.11721 17.094 4.84372C17.3675 4.57023 17.7384 4.41658 18.1252 4.41658ZM12.0002 6.16658C13.5473 6.16658 15.031 6.78117 16.125 7.87513C17.2189 8.96909 17.8335 10.4528 17.8335 11.9999C17.8335 13.547 17.2189 15.0307 16.125 16.1247C15.031 17.2187 13.5473 17.8333 12.0002 17.8333C10.4531 17.8333 8.96934 17.2187 7.87537 16.1247C6.78141 15.0307 6.16683 13.547 6.16683 11.9999C6.16683 10.4528 6.78141 8.96909 7.87537 7.87513C8.96934 6.78117 10.4531 6.16658 12.0002 6.16658ZM12.0002 8.49992C11.0719 8.49992 10.1817 8.86867 9.52529 9.52504C8.86891 10.1814 8.50016 11.0717 8.50016 11.9999C8.50016 12.9282 8.86891 13.8184 9.52529 14.4748C10.1817 15.1312 11.0719 15.4999 12.0002 15.4999C12.9284 15.4999 13.8187 15.1312 14.475 14.4748C15.1314 13.8184 15.5002 12.9282 15.5002 11.9999C15.5002 11.0717 15.1314 10.1814 14.475 9.52504C13.8187 8.86867 12.9284 8.49992 12.0002 8.49992Z" fill="white"/>
</svg>
