<svg width="25" height="16" viewBox="0 0 25 16" fill="none" xmlns="http://www.w3.org/2000/svg">
<path fill-rule="evenodd" clip-rule="evenodd" d="M1.05902 7.12966C4.2361 2.57554 8.35553 0.1875 12.4825 0.1875C17.3294 0.1875 21.5046 3.3451 23.9679 7.14961L23.969 7.1514C24.132 7.40469 24.2187 7.69953 24.2187 8.00073C24.2187 8.30139 24.1323 8.5957 23.9699 8.84867C21.5087 12.7022 17.3605 15.8125 12.4825 15.8125C7.55246 15.8125 3.48424 12.7087 1.02912 8.86637C0.862297 8.60733 0.775772 8.30474 0.780454 7.99663C0.785147 7.68776 0.88129 7.3872 1.05673 7.13295L1.05902 7.12966ZM2.34278 8.02038L2.34494 8.02374C4.61258 11.5734 8.24708 14.25 12.4825 14.25C16.6704 14.25 20.3833 11.562 22.6536 8.00677L22.6551 8.00443C22.6558 8.00333 22.6562 8.00204 22.6562 8.00073C22.6562 8.00018 22.6561 7.99963 22.656 7.9991C22.6558 7.99844 22.6556 7.99778 22.6552 7.99719C20.3762 4.47828 16.633 1.75 12.4825 1.75C8.99897 1.75 5.31178 3.7662 2.34278 8.02038ZM12.4991 4.875C10.7732 4.875 9.37407 6.27411 9.37407 8C9.37407 9.72589 10.7732 11.125 12.4991 11.125C14.225 11.125 15.6241 9.72589 15.6241 8C15.6241 6.27411 14.225 4.875 12.4991 4.875ZM7.81157 8C7.81157 5.41117 9.91024 3.3125 12.4991 3.3125C15.0879 3.3125 17.1866 5.41117 17.1866 8C17.1866 10.5888 15.0879 12.6875 12.4991 12.6875C9.91024 12.6875 7.81157 10.5888 7.81157 8Z" fill="#6B6B6B"/>
</svg>
