<svg width="20" height="16" viewBox="0 0 20 16" fill="none" xmlns="http://www.w3.org/2000/svg">
<path d="M16.8748 15.4997C16.7927 15.4998 16.7114 15.4837 16.6356 15.4522C16.5598 15.4208 16.4909 15.3747 16.433 15.3165L2.68301 1.56647C2.57074 1.4483 2.50908 1.29096 2.51117 1.12799C2.51326 0.965009 2.57892 0.809295 2.69418 0.694044C2.80943 0.578794 2.96514 0.513124 3.12812 0.511038C3.29109 0.508951 3.44844 0.570612 3.5666 0.682875L17.3166 14.4329C17.4039 14.5203 17.4634 14.6316 17.4875 14.7528C17.5116 14.874 17.4992 14.9996 17.452 15.1138C17.4047 15.228 17.3246 15.3256 17.2219 15.3942C17.1192 15.4629 16.9984 15.4996 16.8748 15.4997Z" fill="#6B6B6B"/>
<path d="M9.98652 12.9997C8.36582 12.9997 6.80293 12.52 5.34121 11.5739C4.01035 10.7145 2.8123 9.48366 1.87636 8.0192V8.01608C2.65527 6.90006 3.5084 5.95631 4.4248 5.19538C4.43309 5.18844 4.43985 5.17987 4.44466 5.17019C4.44947 5.16051 4.45222 5.14995 4.45273 5.13915C4.45324 5.12836 4.45151 5.11758 4.44765 5.10749C4.44378 5.0974 4.43787 5.08822 4.43027 5.08053L3.65215 4.30358C3.63832 4.28964 3.61975 4.28141 3.60013 4.28054C3.58052 4.27968 3.56129 4.28623 3.54629 4.29889C2.57285 5.1192 1.66933 6.12545 0.847849 7.30358C0.706515 7.50643 0.628677 7.74672 0.624226 7.99392C0.619774 8.24111 0.688911 8.48405 0.822849 8.69186C1.85449 10.3063 3.18222 11.6661 4.66191 12.6235C6.32793 13.7028 8.1209 14.2497 9.98652 14.2497C10.9935 14.2465 11.9934 14.0806 12.9475 13.7583C12.96 13.754 12.9713 13.7466 12.9803 13.7367C12.9892 13.7269 12.9954 13.7149 12.9985 13.702C13.0015 13.689 13.0011 13.6755 12.9975 13.6628C12.9938 13.65 12.9869 13.6384 12.9775 13.629L12.1346 12.786C12.1152 12.7671 12.0912 12.7535 12.0649 12.7467C12.0387 12.7398 12.0111 12.7399 11.985 12.7469C11.3321 12.915 10.6607 13 9.98652 12.9997Z" fill="#6B6B6B"/>
<path d="M19.1732 7.31998C18.1396 5.72155 16.7986 4.36373 15.2955 3.39303C13.6326 2.31803 11.7967 1.74967 9.98652 1.74967C8.99018 1.75144 8.00124 1.92086 7.06113 2.25084C7.0486 2.2552 7.0374 2.26268 7.02856 2.27257C7.01972 2.28245 7.01354 2.29443 7.01061 2.30736C7.00768 2.3203 7.00809 2.33377 7.01181 2.3465C7.01552 2.35923 7.02241 2.37081 7.03183 2.38014L7.87363 3.22194C7.89323 3.2412 7.91756 3.25496 7.94417 3.26181C7.97078 3.26867 7.99873 3.26839 8.02519 3.261C8.66463 3.08802 9.3241 3.00015 9.98652 2.99967C11.576 2.99967 13.1342 3.48522 14.6174 4.44498C15.9732 5.31998 17.1854 6.54967 18.1236 7.99967C18.1243 8.00056 18.1247 8.00166 18.1247 8.0028C18.1247 8.00393 18.1243 8.00503 18.1236 8.00592C17.4425 9.07816 16.5974 10.0368 15.6189 10.8469C15.6106 10.8538 15.6037 10.8624 15.5988 10.8721C15.594 10.8818 15.5912 10.8924 15.5906 10.9033C15.5901 10.9141 15.5918 10.9249 15.5956 10.9351C15.5995 10.9452 15.6054 10.9545 15.6131 10.9622L16.3904 11.7391C16.4042 11.753 16.4226 11.7612 16.4422 11.7622C16.4617 11.7631 16.4809 11.7567 16.4959 11.7442C17.5404 10.8647 18.4446 9.83093 19.1771 8.67858C19.3066 8.47551 19.3751 8.23954 19.3744 7.99871C19.3737 7.75787 19.3039 7.5223 19.1732 7.31998Z" fill="#6B6B6B"/>
<path d="M9.9998 4.24967C9.71891 4.24952 9.4389 4.28097 9.16504 4.34342C9.15121 4.34629 9.13841 4.35286 9.12801 4.36243C9.11762 4.372 9.11001 4.3842 9.106 4.39775C9.102 4.4113 9.10174 4.42568 9.10525 4.43936C9.10877 4.45304 9.11593 4.46552 9.12597 4.47545L13.524 8.87233C13.534 8.88237 13.5464 8.88953 13.5601 8.89305C13.5738 8.89657 13.5882 8.8963 13.6017 8.8923C13.6153 8.88829 13.6275 8.88068 13.637 8.87029C13.6466 8.85989 13.6532 8.8471 13.6561 8.83327C13.7813 8.28406 13.7811 7.71371 13.6557 7.16456C13.5303 6.6154 13.2827 6.10157 12.9314 5.66121C12.5802 5.22085 12.1342 4.86529 11.6267 4.62092C11.1192 4.37655 10.5631 4.24966 9.9998 4.24967Z" fill="#6B6B6B"/>
<path d="M6.47558 7.12702C6.46565 7.11697 6.45317 7.10981 6.43949 7.1063C6.42581 7.10278 6.41143 7.10304 6.39788 7.10705C6.38434 7.11105 6.37213 7.11866 6.36256 7.12906C6.35299 7.13945 6.34642 7.15225 6.34355 7.16608C6.20189 7.78496 6.21968 8.42968 6.39525 9.03982C6.57082 9.64995 6.89843 10.2055 7.34736 10.6545C7.7963 11.1034 8.35187 11.431 8.962 11.6066C9.57213 11.7821 10.2169 11.7999 10.8357 11.6583C10.8496 11.6554 10.8624 11.6488 10.8728 11.6393C10.8832 11.6297 10.8908 11.6175 10.8948 11.6039C10.8988 11.5904 10.899 11.576 10.8955 11.5623C10.892 11.5486 10.8848 11.5362 10.8748 11.5262L6.47558 7.12702Z" fill="#6B6B6B"/>
</svg>
