<svg width="69" height="68" viewBox="0 0 69 68" fill="none" xmlns="http://www.w3.org/2000/svg">
<path d="M37.4169 54.5H30.5836V47.6666H37.4169V54.5ZM37.4169 44.25H30.5836C30.5836 33.1458 40.8336 34 40.8336 27.1666C40.8336 23.4083 37.7586 20.3333 34.0002 20.3333C30.2419 20.3333 27.1669 23.4083 27.1669 27.1666H20.3336C20.3336 19.6158 26.4494 13.5 34.0002 13.5C41.5511 13.5 47.6669 19.6158 47.6669 27.1666C47.6669 35.7083 37.4169 36.5625 37.4169 44.25ZM68.1669 34C68.1669 51.6983 54.6711 66.2875 37.4169 67.9958V61.1283C50.9127 59.4542 61.3336 47.94 61.3336 34C61.3336 20.06 50.9127 8.54582 37.4169 6.87165V0.00415039C54.6711 1.71248 68.1669 16.3016 68.1669 34ZM30.5836 0.00415039V6.87165C25.5952 7.48665 21.0169 9.46832 17.2244 12.4066L12.3727 7.55498C17.4294 3.42082 23.7502 0.687484 30.5836 0.00415039ZM6.87189 30.5833H0.00439453C0.687728 23.75 3.42106 17.4291 7.55523 12.3725L12.4069 17.2583C9.3872 21.1156 7.47387 25.7218 6.87189 30.5833ZM30.5836 61.1283V67.9958C23.7502 67.3125 17.4294 64.6133 12.3727 60.445L17.2244 55.5933C21.0169 58.5316 25.5952 60.5133 30.5836 61.1283ZM0.00439453 37.4166H6.87189C7.48689 42.405 9.46856 46.9833 12.4069 50.7758L7.55523 55.6275C3.30592 50.4296 0.679921 44.0963 0.00439453 37.4166Z" fill="#496440"/>
</svg>
