<svg width="27" height="35" viewBox="0 0 27 35" fill="none" xmlns="http://www.w3.org/2000/svg">
<path fill-rule="evenodd" clip-rule="evenodd" d="M3.18151 9.975C3.29903 8.10274 4.12567 6.34564 5.49312 5.06141C6.86058 3.77719 8.66606 3.06238 10.542 3.0625H11.5168V1.75C11.5168 1.28587 11.7011 0.840752 12.0293 0.512563C12.3575 0.184374 12.8026 0 13.2668 0C13.7309 0 14.176 0.184374 14.5042 0.512563C14.8324 0.840752 15.0168 1.28587 15.0168 1.75V3.0625H15.9915C17.8675 3.06238 19.6729 3.77719 21.0404 5.06141C22.4079 6.34564 23.2345 8.10274 23.352 9.975L23.7388 16.1595C23.8861 18.5176 24.6779 20.7899 26.0278 22.729C26.3066 23.1299 26.4771 23.5961 26.5224 24.0823C26.5678 24.5685 26.4865 25.0582 26.2866 25.5037C26.0866 25.9493 25.7748 26.3355 25.3814 26.6248C24.988 26.9141 24.5264 27.0967 24.0415 27.1548L18.0793 27.8687V29.75C18.0793 31.0264 17.5722 32.2504 16.6697 33.153C15.7672 34.0555 14.5431 34.5625 13.2668 34.5625C11.9904 34.5625 10.7663 34.0555 9.86381 33.153C8.96129 32.2504 8.45426 31.0264 8.45426 29.75V27.8687L2.49201 27.153C2.00742 27.0947 1.54615 26.9121 1.15299 26.6229C0.759828 26.3337 0.448155 25.9478 0.248249 25.5025C0.0483421 25.0572 -0.0330022 24.5679 0.0121194 24.0819C0.057241 23.5959 0.227295 23.1298 0.505758 22.729C1.85553 20.7899 2.64728 18.5175 2.79476 16.1595L3.18151 9.97675V9.975ZM10.542 5.6875C9.33376 5.68735 8.17088 6.1477 7.29012 6.97481C6.40936 7.80193 5.87694 8.93363 5.80126 10.1395L5.41626 16.324C5.23836 19.1607 4.28561 21.8943 2.66176 24.227C2.64158 24.256 2.62924 24.2897 2.62595 24.3249C2.62265 24.36 2.62851 24.3955 2.64295 24.4277C2.6574 24.4599 2.67993 24.4879 2.70837 24.5088C2.73681 24.5298 2.77019 24.543 2.80526 24.5473L9.34501 25.333C11.9508 25.6445 14.5828 25.6445 17.1885 25.333L23.7283 24.5473C23.7633 24.543 23.7967 24.5298 23.8251 24.5088C23.8536 24.4879 23.8761 24.4599 23.8906 24.4277C23.905 24.3955 23.9109 24.36 23.9076 24.3249C23.9043 24.2897 23.8919 24.256 23.8718 24.227C22.2484 21.8941 21.2963 19.1606 21.119 16.324L20.7323 10.1395C20.6566 8.93363 20.1242 7.80193 19.2434 6.97481C18.3626 6.1477 17.1998 5.68735 15.9915 5.6875H10.542ZM13.2668 31.9375C12.0593 31.9375 11.0793 30.9575 11.0793 29.75V28.4375H15.4543V29.75C15.4543 30.9575 14.4743 31.9375 13.2668 31.9375Z" fill="white"/>
</svg>
