<svg width="217" height="217" viewBox="0 0 217 217" fill="none" xmlns="http://www.w3.org/2000/svg">
<path d="M217 108.5C217 164.985 174.035 211.548 119.105 217V195.082C162.07 189.739 195.246 152.99 195.246 108.5C195.246 64.0095 162.07 27.2613 119.105 21.9181V0C174.035 5.45226 217 52.0146 217 108.5ZM97.3509 0V21.9181C81.4702 23.8809 66.8947 30.2055 54.821 39.5834L39.3754 24.099C55.4737 10.9045 75.5965 2.1809 97.3509 0ZM21.8632 97.5955H0C2.17544 75.7864 10.8772 55.6131 24.0386 39.4744L39.4842 55.0678C29.8708 67.3786 23.7796 82.0795 21.8632 97.5955ZM97.3509 195.082V217C75.5965 214.819 55.4737 206.205 39.3754 192.901L54.821 177.417C66.8947 186.794 81.4702 193.119 97.3509 195.082ZM0 119.405H21.8632C23.8211 135.325 30.1298 149.937 39.4842 162.041L24.0386 177.526C10.5106 160.936 2.15059 140.723 0 119.405Z" fill="white"/>
<path fill-rule="evenodd" clip-rule="evenodd" d="M70.99 80.8076C71.4329 73.7113 74.5482 67.0515 79.7017 62.1839C84.8552 57.3164 91.6594 54.6071 98.7292 54.6076H102.403V49.6329C102.403 47.8738 103.098 46.1866 104.334 44.9427C105.571 43.6988 107.249 43 108.998 43C110.747 43 112.425 43.6988 113.661 44.9427C114.898 46.1866 115.593 47.8738 115.593 49.6329V54.6076H119.267C126.336 54.6071 133.141 57.3164 138.294 62.1839C143.448 67.0515 146.563 73.7113 147.006 80.8076L148.463 104.248C149.019 113.186 152.003 121.799 157.09 129.148C158.141 130.668 158.783 132.435 158.954 134.278C159.125 136.12 158.819 137.976 158.065 139.665C157.312 141.354 156.136 142.818 154.654 143.914C153.171 145.011 151.432 145.703 149.604 145.923L127.135 148.629V155.759C127.135 160.597 125.224 165.237 121.822 168.657C118.421 172.078 113.808 174 108.998 174C104.188 174 99.5746 172.078 96.1733 168.657C92.772 165.237 90.8612 160.597 90.8612 155.759V148.629L68.3915 145.916C66.5653 145.695 64.8269 145.003 63.3452 143.907C61.8635 142.811 60.6889 141.348 59.9356 139.66C59.1822 137.973 58.8756 136.118 59.0457 134.276C59.2157 132.434 59.8566 130.668 60.906 129.148C65.9929 121.799 68.9767 113.186 69.5325 104.248L70.99 80.8142V80.8076ZM98.7292 64.557C94.1758 64.5564 89.7933 66.3012 86.474 69.4362C83.1547 72.5711 81.1482 76.8605 80.863 81.4311L79.412 104.872C78.7416 115.624 75.151 125.984 69.0313 134.826C68.9552 134.936 68.9087 135.064 68.8963 135.197C68.8839 135.33 68.906 135.465 68.9604 135.587C69.0148 135.709 69.0998 135.815 69.2069 135.894C69.3141 135.974 69.4399 136.024 69.5721 136.04L94.2181 139.018C104.038 140.199 113.957 140.199 123.778 139.018L148.424 136.04C148.556 136.024 148.682 135.974 148.789 135.894C148.896 135.815 148.981 135.709 149.035 135.587C149.09 135.465 149.112 135.33 149.099 135.197C149.087 135.064 149.041 134.936 148.965 134.826C142.847 125.984 139.258 115.623 138.59 104.872L137.133 81.4311C136.848 76.8605 134.841 72.5711 131.522 69.4362C128.203 66.3012 123.82 64.5564 119.267 64.557H98.7292ZM108.998 164.051C104.447 164.051 100.754 160.336 100.754 155.759V150.785H117.242V155.759C117.242 160.336 113.549 164.051 108.998 164.051Z" fill="white"/>
</svg>
