<svg width="109" height="109" viewBox="0 0 109 109" fill="none" xmlns="http://www.w3.org/2000/svg">
<path d="M109 54.5C109 82.8729 87.4185 106.261 59.8271 109V97.9905C81.4085 95.3065 98.0727 76.8477 98.0727 54.5C98.0727 32.1523 81.4085 13.6935 59.8271 11.0095V0C87.4185 2.73869 109 26.1271 109 54.5ZM48.8997 0V11.0095C40.9228 11.9955 33.6015 15.1724 27.5368 19.8829L19.7784 12.105C27.8647 5.47739 37.9724 1.09548 48.8997 0ZM10.982 49.0226H0C1.09273 38.0678 5.46366 27.9347 12.0747 19.8281L19.8331 27.6608C15.0042 33.8445 11.9446 41.2289 10.982 49.0226ZM48.8997 97.9905V109C37.9724 107.905 27.8647 103.577 19.7784 96.895L27.5368 89.1171C33.6015 93.8276 40.9228 97.0045 48.8997 97.9905ZM0 59.9774H10.982C11.9654 67.9744 15.1343 75.3141 19.8331 81.394L12.0747 89.1719C5.27953 80.839 1.08025 70.6858 0 59.9774Z" fill="#496440"/>
<path d="M77.4943 82.1081L59.358 63.9459C57.7386 65.2432 55.8764 66.2703 53.7713 67.027C51.6662 67.7838 49.4261 68.1622 47.0511 68.1622C41.1676 68.1622 36.1888 66.1211 32.1145 62.0389C28.0403 57.9568 26.0022 52.9708 26 47.0811C26 41.1892 28.0382 36.2032 32.1145 32.1232C36.1909 28.0432 41.1698 26.0022 47.0511 26C52.9347 26 57.9135 28.0411 61.9877 32.1232C66.0619 36.2054 68.1001 41.1914 68.1023 47.0811C68.1023 49.4595 67.7244 51.7027 66.9688 53.8108C66.2131 55.9189 65.1875 57.7838 63.892 59.4054L82.1094 77.6486C82.7031 78.2432 83 78.973 83 79.8378C83 80.7027 82.6761 81.4595 82.0284 82.1081C81.4347 82.7027 80.679 83 79.7614 83C78.8438 83 78.0881 82.7027 77.4943 82.1081ZM47.0511 61.6757C51.0994 61.6757 54.541 60.2562 57.3759 57.4173C60.2108 54.5784 61.6272 51.133 61.625 47.0811C61.625 43.027 60.2076 39.5805 57.3727 36.7416C54.5378 33.9027 51.0973 32.4843 47.0511 32.4865C43.0028 32.4865 39.5612 33.9059 36.7264 36.7449C33.8915 39.5838 32.4751 43.0292 32.4773 47.0811C32.4773 51.1351 33.8947 54.5816 36.7296 57.4205C39.5645 60.2595 43.005 61.6778 47.0511 61.6757Z" fill="#496440"/>
</svg>
