<svg width="21" height="16" viewBox="0 0 21 16" fill="none" xmlns="http://www.w3.org/2000/svg">
<path d="M20.4821 1.12977C20.8274 1.54962 21 2.08397 21 2.73283C21 3.38168 20.8274 3.91603 20.4821 4.33588L11.8184 14.8702C11.63 15.0992 11.426 15.2611 11.2063 15.3557C10.9865 15.4504 10.7511 15.4985 10.5 15.5C10.2489 15.5 10.0053 15.4427 9.76924 15.3282C9.53319 15.2137 9.33731 15.0611 9.18162 14.8702L0.51794 4.33588C0.172648 3.91603 -1.05942e-06 3.38168 -1.11614e-06 2.73283C-1.17287e-06 2.08397 0.172648 1.54962 0.517939 1.12977C0.86323 0.709926 1.30269 0.500002 1.83632 0.500002C2.36995 0.500002 2.80942 0.709926 3.15471 1.12977L10.5 10.0611L17.8453 1.12977C18.1906 0.709925 18.63 0.5 19.1637 0.5C19.6973 0.5 20.1368 0.709925 20.4821 1.12977Z" fill="#848484"/>
</svg>
