<svg width="80" height="80" viewBox="0 0 80 80" fill="none" xmlns="http://www.w3.org/2000/svg">
<path d="M36.8927 60.7495V42.8569H19V36.8927H36.8927V19H42.8569V36.8927H60.7495V42.8569H42.8569V60.7495H36.8927Z" fill="#FDFDFD"/>
<path d="M79.8368 39.9184C79.8368 60.7 64.0295 77.8309 43.8202 79.8368V71.7729C59.6275 69.8071 71.8331 56.287 71.8331 39.9184C71.8331 23.5499 59.6275 10.0298 43.8202 8.06392V0C64.0295 2.00595 79.8368 19.1368 79.8368 39.9184ZM35.8165 0V8.06392C29.9738 8.78606 24.6113 11.113 20.1693 14.5632L14.4867 8.8663C20.4094 4.0119 27.8128 0.80238 35.8165 0ZM8.04371 35.9065H0C0.800369 27.8827 4.00185 20.4607 8.84408 14.5231L14.5267 20.2601C10.9898 24.7894 8.74878 30.198 8.04371 35.9065ZM35.8165 71.7729V79.8368C27.8128 79.0344 20.4094 75.865 14.4867 70.9705L20.1693 65.2736C24.6113 68.7238 29.9738 71.0508 35.8165 71.7729ZM0 43.9303H8.04371C8.76404 49.7877 11.0851 55.1636 14.5267 59.6168L8.84408 65.3137C3.86698 59.2103 0.791225 51.7737 0 43.9303Z" fill="#FDFDFD"/>
</svg>
