<svg width="69" height="70" viewBox="0 0 69 70" fill="none" xmlns="http://www.w3.org/2000/svg">
<path d="M37.4169 0.935852C53.5777 2.54169 66.4586 15.3542 67.9961 31.5834C68.4463 36.0443 68.012 40.5503 66.718 44.8432C65.424 49.136 63.2958 53.1314 60.4552 56.6004C57.6146 60.0694 54.1175 62.9439 50.1642 65.0592C46.2109 67.1745 41.879 68.4891 37.4169 68.9275V62.0942C49.8536 60.625 59.6252 50.7509 61.1969 38.3142C61.6395 34.7512 61.3753 31.1359 60.4193 27.6751C59.4634 24.2144 57.8345 20.976 55.6258 18.1454C53.4171 15.3148 50.6721 12.9474 47.5476 11.1786C44.4231 9.40989 40.9806 8.27454 37.4169 7.83752V0.935852ZM30.5836 1.03835V7.87169C25.6977 8.55502 21.0852 10.5367 17.2586 13.6117L12.3727 8.55502C17.5548 4.28484 23.8982 1.66654 30.5836 1.03835ZM7.55523 13.3725L12.4411 18.2584C9.41384 22.1182 7.47867 26.7201 6.83773 31.5834H0.00439453C0.687728 24.8867 3.25023 18.5659 7.55523 13.3725ZM0.0385612 38.4167H6.87189C7.48689 43.2684 9.43439 47.8808 12.4411 51.7417L7.58939 56.6275C3.34479 51.4268 0.719411 45.095 0.0385612 38.4167ZM17.2586 56.7642C21.1194 59.7709 25.7319 61.7183 30.5836 62.3333V69.1667C23.8869 68.4492 17.5319 65.75 12.3727 61.445L17.2586 56.7642ZM34.0002 19.625L18.6252 35H30.5836V48.6667H37.4169V35H49.3752L34.0002 19.625Z" fill="#496440"/>
</svg>
