<svg width="109" height="109" viewBox="0 0 109 109" fill="none" xmlns="http://www.w3.org/2000/svg">
<path d="M109 54.5C109 82.8729 87.4185 106.261 59.8271 109V97.9905C81.4085 95.3065 98.0727 76.8477 98.0727 54.5C98.0727 32.1523 81.4085 13.6935 59.8271 11.0095V0C87.4185 2.73869 109 26.1271 109 54.5ZM48.8997 0V11.0095C40.9228 11.9955 33.6015 15.1724 27.5368 19.8829L19.7784 12.105C27.8647 5.47739 37.9724 1.09548 48.8997 0ZM10.982 49.0226H0C1.09273 38.0678 5.46366 27.9347 12.0747 19.8281L19.8331 27.6608C15.0042 33.8445 11.9446 41.2289 10.982 49.0226ZM48.8997 97.9905V109C37.9724 107.905 27.8647 103.577 19.7784 96.895L27.5368 89.1171C33.6015 93.8276 40.9228 97.0045 48.8997 97.9905ZM0 59.9774H10.982C11.9654 67.9744 15.1343 75.3141 19.8331 81.394L12.0747 89.1719C5.27953 80.839 1.08025 70.6858 0 59.9774Z" fill="#496440"/>
<path d="M78.9286 29H62.6429C61.0627 29 59.5042 29.3765 58.0909 30.0997C56.6775 30.8229 55.4481 31.873 54.5 33.1667C53.5519 31.873 52.3225 30.8229 50.9091 30.0997C49.4958 29.3765 47.9373 29 46.3571 29H30.0714C28.9916 29 27.956 29.439 27.1925 30.2204C26.429 31.0018 26 32.0616 26 33.1667V66.5C26 67.6051 26.429 68.6649 27.1925 69.4463C27.956 70.2277 28.9916 70.6667 30.0714 70.6667H46.3571C47.9769 70.6667 49.5302 71.3251 50.6755 72.4972C51.8209 73.6693 52.4643 75.2591 52.4643 76.9167C52.4643 77.4692 52.6788 77.9991 53.0605 78.3898C53.4423 78.7805 53.9601 79 54.5 79C55.0399 79 55.5577 78.7805 55.9395 78.3898C56.3212 77.9991 56.5357 77.4692 56.5357 76.9167C56.5357 75.2591 57.1791 73.6693 58.3245 72.4972C59.4698 71.3251 61.0231 70.6667 62.6429 70.6667H78.9286C80.0084 70.6667 81.044 70.2277 81.8075 69.4463C82.571 68.6649 83 67.6051 83 66.5V33.1667C83 32.0616 82.571 31.0018 81.8075 30.2204C81.044 29.439 80.0084 29 78.9286 29ZM46.3571 66.5H30.0714V33.1667H46.3571C47.9769 33.1667 49.5302 33.8251 50.6755 34.9972C51.8209 36.1694 52.4643 37.7591 52.4643 39.4167V68.5833C50.7041 67.2278 48.5601 66.4964 46.3571 66.5ZM78.9286 66.5H62.6429C60.44 66.4964 58.2959 67.2278 56.5357 68.5833V39.4167C56.5357 37.7591 57.1791 36.1694 58.3245 34.9972C59.4698 33.8251 61.0231 33.1667 62.6429 33.1667H78.9286V66.5ZM62.6429 39.4167H72.8214C73.3613 39.4167 73.8791 39.6362 74.2609 40.0269C74.6427 40.4176 74.8571 40.9475 74.8571 41.5C74.8571 42.0525 74.6427 42.5824 74.2609 42.9731C73.8791 43.3638 73.3613 43.5833 72.8214 43.5833H62.6429C62.103 43.5833 61.5852 43.3638 61.2034 42.9731C60.8216 42.5824 60.6071 42.0525 60.6071 41.5C60.6071 40.9475 60.8216 40.4176 61.2034 40.0269C61.5852 39.6362 62.103 39.4167 62.6429 39.4167ZM74.8571 49.8333C74.8571 50.3859 74.6427 50.9158 74.2609 51.3065C73.8791 51.6972 73.3613 51.9167 72.8214 51.9167H62.6429C62.103 51.9167 61.5852 51.6972 61.2034 51.3065C60.8216 50.9158 60.6071 50.3859 60.6071 49.8333C60.6071 49.2808 60.8216 48.7509 61.2034 48.3602C61.5852 47.9695 62.103 47.75 62.6429 47.75H72.8214C73.3613 47.75 73.8791 47.9695 74.2609 48.3602C74.6427 48.7509 74.8571 49.2808 74.8571 49.8333ZM74.8571 58.1667C74.8571 58.7192 74.6427 59.2491 74.2609 59.6398C73.8791 60.0305 73.3613 60.25 72.8214 60.25H62.6429C62.103 60.25 61.5852 60.0305 61.2034 59.6398C60.8216 59.2491 60.6071 58.7192 60.6071 58.1667C60.6071 57.6141 60.8216 57.0842 61.2034 56.6935C61.5852 56.3028 62.103 56.0833 62.6429 56.0833H72.8214C73.3613 56.0833 73.8791 56.3028 74.2609 56.6935C74.6427 57.0842 74.8571 57.6141 74.8571 58.1667Z" fill="#496440"/>
</svg>
