<svg width="109" height="109" viewBox="0 0 109 109" fill="none" xmlns="http://www.w3.org/2000/svg">
<path d="M109 54.5C109 82.8729 87.4185 106.261 59.8271 109V97.9905C81.4085 95.3065 98.0727 76.8477 98.0727 54.5C98.0727 32.1523 81.4085 13.6935 59.8271 11.0095V0C87.4185 2.73869 109 26.1271 109 54.5ZM48.8997 0V11.0095C40.9228 11.9955 33.6015 15.1724 27.5368 19.8829L19.7784 12.105C27.8647 5.47739 37.9724 1.09548 48.8997 0ZM10.982 49.0226H0C1.09273 38.0678 5.46366 27.9347 12.0747 19.8281L19.8331 27.6608C15.0042 33.8445 11.9446 41.2289 10.982 49.0226ZM48.8997 97.9905V109C37.9724 107.905 27.8647 103.577 19.7784 96.895L27.5368 89.1171C33.6015 93.8276 40.9228 97.0045 48.8997 97.9905ZM0 59.9774H10.982C11.9654 67.9744 15.1343 75.3141 19.8331 81.394L12.0747 89.1719C5.27953 80.839 1.08025 70.6858 0 59.9774Z" fill="#496440"/>
<path d="M50.4286 83V58.5714H26V50.4286H50.4286V26H58.5714V50.4286H83V58.5714H58.5714V83H50.4286Z" fill="#496440"/>
</svg>
