<svg width="21" height="21" viewBox="0 0 21 21" fill="none" xmlns="http://www.w3.org/2000/svg">
<path d="M10.5417 16.7917C10.5417 17.5208 10.6771 18.2188 10.9062 18.875H2.20833C1.6558 18.875 1.12589 18.6555 0.735194 18.2648C0.344493 17.8741 0.125 17.3442 0.125 16.7917V2.20833C0.125 1.0625 1.0625 0.125 2.20833 0.125H16.7917C17.3442 0.125 17.8741 0.344493 18.2648 0.735194C18.6555 1.12589 18.875 1.6558 18.875 2.20833V10.9062C18.2188 10.6771 17.5208 10.5417 16.7917 10.5417V2.20833H2.20833V16.7917H10.5417ZM11.5417 9.80208L8.67708 13.4896L6.63542 11.0312L3.77083 14.7083H10.9062C11.3229 13.5417 12.0729 12.5312 13.0417 11.8021L11.5417 9.80208ZM17.8333 15.75V12.625H15.75V15.75H12.625V17.8333H15.75V20.9583H17.8333V17.8333H20.9583V15.75H17.8333Z" fill="black"/>
</svg>
