<svg width="67" height="67" viewBox="0 0 67 67" fill="none" xmlns="http://www.w3.org/2000/svg">
<path d="M67 33.5C67 50.9402 53.7343 65.3166 36.7744 67V60.2327C50.0401 58.5829 60.2832 47.2367 60.2832 33.5C60.2832 19.7633 50.0401 8.41708 36.7744 6.76734V0C53.7343 1.68342 67 16.0598 67 33.5ZM30.0576 0V6.76734C25.1544 7.37337 20.6541 9.32613 16.9263 12.2216L12.1574 7.4407C17.1278 3.36683 23.3408 0.673367 30.0576 0ZM6.75038 30.1332H0C0.671679 23.3995 3.3584 17.1709 7.42206 12.1879L12.191 17.0025C9.22278 20.8035 7.34208 25.3425 6.75038 30.1332ZM30.0576 60.2327V67C23.3408 66.3266 17.1278 63.6668 12.1574 59.5593L16.9263 54.7784C20.6541 57.6739 25.1544 59.6266 30.0576 60.2327ZM0 36.8668H6.75038C7.35489 41.7824 9.30276 46.294 12.191 50.0312L7.42206 54.8121C3.24522 49.69 0.664006 43.4491 0 36.8668Z" fill="#496440"/>
<path d="M21.25 25.8438C21.25 25.2405 21.3688 24.6431 21.5997 24.0858C21.8305 23.5285 22.1689 23.022 22.5955 22.5955C23.022 22.1689 23.5285 21.8305 24.0858 21.5997C24.6431 21.3688 25.2405 21.25 25.8438 21.25C26.447 21.25 27.0444 21.3688 27.6017 21.5997C28.159 21.8305 28.6655 22.1689 29.092 22.5955C29.5186 23.022 29.857 23.5285 30.0878 24.0858C30.3187 24.6431 30.4375 25.2405 30.4375 25.8438C30.4375 27.0621 29.9535 28.2305 29.092 29.092C28.2305 29.9535 27.0621 30.4375 25.8438 30.4375C24.6254 30.4375 23.457 29.9535 22.5955 29.092C21.734 28.2305 21.25 27.0621 21.25 25.8438ZM25.8438 18.1875C23.8132 18.1875 21.8658 18.9941 20.43 20.43C18.9941 21.8658 18.1875 23.8132 18.1875 25.8438C18.1875 27.8743 18.9941 29.8217 20.43 31.2575C21.8658 32.6934 23.8132 33.5 25.8438 33.5C27.8743 33.5 29.8217 32.6934 31.2575 31.2575C32.6934 29.8217 33.5 27.8743 33.5 25.8438C33.5 23.8132 32.6934 21.8658 31.2575 20.43C29.8217 18.9941 27.8743 18.1875 25.8438 18.1875ZM41.1562 27.375C41.1562 26.5628 41.4789 25.7838 42.0532 25.2095C42.6276 24.6352 43.4065 24.3125 44.2188 24.3125C45.031 24.3125 45.8099 24.6352 46.3843 25.2095C46.9586 25.7838 47.2812 26.5628 47.2812 27.375C47.2812 28.1872 46.9586 28.9662 46.3843 29.5405C45.8099 30.1148 45.031 30.4375 44.2188 30.4375C43.4065 30.4375 42.6276 30.1148 42.0532 29.5405C41.4789 28.9662 41.1562 28.1872 41.1562 27.375ZM44.2188 21.25C42.5943 21.25 41.0364 21.8953 39.8877 23.044C38.7391 24.1926 38.0938 25.7505 38.0938 27.375C38.0938 28.9995 38.7391 30.5574 39.8877 31.706C41.0364 32.8547 42.5943 33.5 44.2188 33.5C45.8432 33.5 47.4011 32.8547 48.5498 31.706C49.6984 30.5574 50.3438 28.9995 50.3438 27.375C50.3438 25.7505 49.6984 24.1926 48.5498 23.044C47.4011 21.8953 45.8432 21.25 44.2188 21.25ZM13.5938 41.1562C13.5938 39.9379 14.0777 38.7695 14.9392 37.908C15.8007 37.0465 16.9692 36.5625 18.1875 36.5625H33.5C34.7183 36.5625 35.8868 37.0465 36.7483 37.908C37.6098 38.7695 38.0938 39.9379 38.0938 41.1562V41.4993C38.0905 41.6395 38.0803 41.7796 38.0631 41.9188C37.8886 43.4035 37.3361 44.8186 36.4584 46.0287C34.7832 48.3409 31.5982 50.3438 25.8438 50.3438C20.0924 50.3438 16.9074 48.3409 15.2261 46.0287C14.3495 44.8183 13.798 43.4032 13.6244 41.9188C13.6091 41.7794 13.5989 41.6394 13.5938 41.4993V41.1562ZM16.6562 41.4319V41.4533L16.6685 41.6034C16.7871 42.5514 17.1431 43.4542 17.7036 44.2279C18.702 45.5999 20.8764 47.2812 25.8438 47.2812C30.8111 47.2812 32.9855 45.5999 33.9839 44.2279C34.5444 43.4542 34.9004 42.5514 35.019 41.6034C35.0245 41.5525 35.0286 41.5014 35.0312 41.4502V41.1562C35.0312 40.7501 34.8699 40.3607 34.5828 40.0735C34.2956 39.7863 33.9061 39.625 33.5 39.625H18.1875C17.7814 39.625 17.3919 39.7863 17.1047 40.0735C16.8176 40.3607 16.6562 40.7501 16.6562 41.1562V41.4319ZM44.2188 47.2812C42.418 47.2812 40.9419 47.0056 39.7475 46.5524C40.2385 45.653 40.6101 44.6935 40.8531 43.6981C41.6738 44.0074 42.7641 44.2188 44.2188 44.2188C47.6457 44.2188 49.0514 43.0489 49.67 42.1791C50.0316 41.6718 50.2611 41.0824 50.3376 40.4641L50.3438 40.3784C50.3405 40.1775 50.2585 39.9858 50.1152 39.8449C49.972 39.704 49.7791 39.625 49.5781 39.625H41.0031C40.777 38.5144 40.3062 37.4682 39.625 36.5625H49.5781C51.6912 36.5625 53.4062 38.2775 53.4062 40.3906V40.4427C53.4026 40.5542 53.3944 40.6656 53.3817 40.7765C53.252 41.9243 52.8326 43.0203 52.1629 43.9615C50.8705 45.7714 48.4481 47.2812 44.2188 47.2812Z" fill="#496440"/>
</svg>
